<?xml version="1.0" encoding="utf-8"?>
<svg version="1.1" id="Layer_1" xmlns="http://www.w3.org/2000/svg" xmlns:xlink="http://www.w3.org/1999/xlink" x="0px" y="0px"
	 viewBox="0 0 707 790.3" style="enable-background:new 0 0 707 790.3;" xml:space="preserve">
<style type="text/css">
	.st0{fill:#9C705A;}
	.st1{fill:#1E4389;}
	.st2{fill:#AE3B72;}
	.st3{fill:#6BC0AA;}
	.st4{fill:#B1E1E9;}
	.st5{fill:#943A7F;}
</style>
<g>
	<path id="XMLID_36_" class="st0" d="M222.1,6.5c-6.3,56.1-4.8,109.6,6.1,164.9c4.4,22.3,8.1,44.5,9.5,67.2
		c1.9,31.1-0.2,62.5-1.1,93.6c-2.6,94.2-5.5,188.5-8.6,282.7c-0.3,8.8,13.3,8.8,13.6,0c3.1-92.9,5.9-185.8,8.5-278.7
		c1.5-54.5,3.1-107.3-7.3-161c-4.3-22.3-8.7-44.4-10.5-67c-2.7-33.9-0.3-68,3.4-101.7C236.6-2.2,223-2.1,222.1,6.5L222.1,6.5z"/>
</g>
<g id="XMLID_35_">
	<path id="XMLID_26_" class="st1" d="M704.9,536.5c0,0-131.2,49.1-343.8,49.1c-212.6,0-332.9-49.1-332.9-49.1s-51.1,253.7,333,253.7
		C755.8,790.3,704.9,536.5,704.9,536.5z"/>
</g>
<path id="XMLID_34_" class="st2" d="M224.3,39.7c0,0-210.1,35.4-223.7,215.1c-9.4,123.4,91.6,230.2,234.1,245
	C234.7,499.9,93.2,310.7,224.3,39.7z"/>
<g id="XMLID_19_">
	<g id="XMLID_42_">
		<g id="XMLID_46_">
			<path id="XMLID_47_" class="st3" d="M366.5,658.4c-3.5,0.1-7-0.1-10.4-0.1c-3.4-0.1-6.8-0.1-10.1-0.2c-3.3-0.1-6.6-0.1-9.8-0.2
				c-3.2-0.1-6.4-0.3-9.5-0.4c-6.2-0.3-12.2-0.6-18-0.8c-5.8-0.4-11.4-0.8-16.8-1.2c-2.7-0.2-5.4-0.4-8-0.6
				c-2.6-0.2-5.2-0.5-7.7-0.7c-5-0.5-9.8-0.9-14.5-1.3c-2.3-0.2-4.6-0.4-6.8-0.7c-2.2-0.3-4.4-0.5-6.6-0.8c-4.3-0.5-8.4-1-12.4-1.4
				c-31.6-4-52.5-7.9-66.4-10.3c-13.9-2.7-20.8-4.1-24.3-4.8c-3.5-0.7-3.5-0.7-3.5-0.7c-9.5-1.9-18.4-4-26.6-5.9
				c-8.2-2-15.9-3.8-22.9-5.7c-7.1-1.8-13.5-3.6-19.3-5.2c-5.8-1.7-11.1-3.2-15.7-4.6c-9.3-2.8-16.2-5.1-20.8-6.6
				c-2.3-0.8-4-1.3-5.2-1.7c-1.2-0.4-1.7-0.6-1.8-0.5c0,0,0.5,0.3,1.7,0.8c1.1,0.5,2.8,1.1,5.1,2c4.6,1.7,11.4,4.1,20.7,7.1
				c4.6,1.5,9.9,3.1,15.7,4.9c5.8,1.7,12.2,3.6,19.3,5.5c7,2,14.7,3.9,22.9,6c8.3,1.9,17.1,4.1,26.6,6.1c0,0,0,0,3.5,0.7
				c3.5,0.8,10.4,2.1,24.3,4.9c14,2.5,34.9,6.3,66.5,10.3c4,0.5,8.1,0.9,12.4,1.4c2.1,0.2,4.3,0.5,6.6,0.8c2.2,0.3,4.5,0.5,6.8,0.7
				c4.7,0.4,9.5,0.9,14.5,1.3c2.5,0.2,5.1,0.5,7.7,0.7c2.6,0.2,5.3,0.4,8,0.6c5.4,0.4,11,0.8,16.8,1.2c5.8,0.3,11.8,0.6,18,0.8
				c3.1,0.1,6.3,0.3,9.5,0.4c3.2,0.1,6.5,0.1,9.8,0.2c3.3,0.1,6.7,0.1,10.1,0.2c3.4,0.1,6.9,0.2,10.5,0.1
				c56.7,0.1,99.2-3.7,130.8-7.5c4-0.5,7.8-0.9,11.4-1.4c1.8-0.2,3.6-0.5,5.3-0.7c1.7-0.3,3.4-0.5,5.1-0.8c6.6-1,12.6-1.9,18.1-2.7
				c5.5-0.8,10.4-1.8,14.8-2.6c4.4-0.8,8.3-1.5,11.8-2.2c3.5-0.6,6.5-1.2,9.2-1.7c2.7-0.5,4.9-1.1,6.9-1.5c3.9-0.9,6.5-1.4,8.2-1.8
				c3.5-0.8,3.5-0.8,3.5-0.8c4.7-1.1,9.3-2.1,13.8-3.1c4.4-1.1,8.7-2.3,12.8-3.3c4.1-1.1,8.1-2.1,11.9-3.1c3.8-1,7.5-1.9,11-3
				c7-2.1,13.4-4,19.2-5.8c5.8-1.8,11.1-3.3,15.6-5c9.2-3.2,16.1-5.6,20.6-7.2c2.3-0.8,4-1.5,5.1-1.9c1.1-0.4,1.7-0.7,1.7-0.7
				c0,0-0.6,0.1-1.8,0.5c-1.2,0.4-2.9,0.9-5.2,1.6c-4.6,1.5-11.6,3.7-20.8,6.7c-4.6,1.6-9.9,3-15.7,4.7c-5.8,1.7-12.2,3.5-19.2,5.5
				c-3.5,1.1-7.2,1.9-11,2.9c-3.8,1-7.8,2-11.9,3c-4.1,1-8.4,2.1-12.8,3.2c-4.4,1-9,1.9-13.8,3c0,0,0,0-3.5,0.8
				c-1.7,0.4-4.3,0.9-8.2,1.8c-1.9,0.4-4.2,0.9-6.9,1.5c-2.7,0.5-5.7,1.1-9.2,1.7s-7.4,1.4-11.8,2.2c-4.4,0.8-9.3,1.8-14.8,2.6
				c-5.5,0.8-11.5,1.7-18.1,2.7c-1.7,0.2-3.3,0.5-5.1,0.8c-1.7,0.3-3.5,0.5-5.3,0.7c-3.6,0.4-7.4,0.9-11.4,1.4
				C465.4,654.8,423.1,658.5,366.5,658.4z"/>
		</g>
	</g>
</g>
<g id="XMLID_18_">
	<g id="XMLID_49_">
		<g id="XMLID_53_">
			<path id="XMLID_54_" class="st3" d="M369.2,733.7c-3.2,0.1-6.3,0-9.4,0c-3.1,0-6.1-0.1-9.1-0.1c-3,0-5.9-0.1-8.8-0.1
				c-2.9-0.1-5.7-0.2-8.5-0.3c-5.6-0.2-11-0.4-16.3-0.6c-5.2-0.3-10.3-0.6-15.2-0.9c-2.4-0.1-4.8-0.3-7.2-0.4
				c-2.4-0.2-4.7-0.4-6.9-0.6c-4.5-0.4-8.9-0.8-13.1-1.1c-1-0.1-2.1-0.2-3.1-0.3c-1-0.1-2-0.2-3.1-0.3c-2-0.2-4-0.4-5.9-0.6
				c-3.9-0.4-7.6-0.8-11.2-1.2c-28.5-3.4-47.4-6.9-59.9-9.1c-12.5-2.4-18.8-3.6-21.9-4.3c-3.1-0.7-3.1-0.7-3.1-0.7
				c-8.6-1.7-16.6-3.6-24-5.3c-7.4-1.8-14.4-3.5-20.7-5.2c-6.4-1.6-12.1-3.3-17.4-4.7c-5.2-1.6-10-2.9-14.2-4.2
				c-8.4-2.5-14.6-4.6-18.7-6c-2.1-0.7-3.6-1.2-4.7-1.6c-1-0.3-1.6-0.5-1.6-0.5c0,0,0.5,0.3,1.5,0.7c1,0.4,2.5,1,4.6,1.8
				c4.1,1.6,10.3,3.8,18.6,6.5c4.2,1.4,8.9,2.8,14.1,4.5c5.3,1.5,11,3.3,17.4,5c6.3,1.8,13.2,3.5,20.7,5.4c7.5,1.8,15.4,3.7,24,5.5
				c0,0,0,0,3.1,0.7c3.1,0.7,9.4,1.9,22,4.3c12.6,2.2,31.5,5.6,60.1,9.1c3.6,0.4,7.3,0.8,11.2,1.2c1.9,0.2,3.9,0.4,5.9,0.6
				c1,0.1,2,0.2,3.1,0.3c1,0.1,2.1,0.2,3.1,0.3c4.2,0.4,8.6,0.7,13.1,1.1c2.3,0.2,4.6,0.4,6.9,0.6c2.4,0.1,4.8,0.3,7.2,0.4
				c4.9,0.3,9.9,0.6,15.2,0.9c5.2,0.2,10.7,0.4,16.3,0.6c2.8,0.1,5.7,0.2,8.6,0.3c2.9,0,5.9,0.1,8.9,0.1c3,0,6,0.1,9.1,0.1
				c3.1,0,6.2,0.1,9.4,0c51.2-0.6,89.4-4.7,117.9-8.7c3.6-0.5,7-1,10.3-1.4c3.3-0.5,6.4-1.1,9.4-1.6c6-1,11.4-2,16.3-2.8
				c1.2-0.2,2.4-0.4,3.6-0.6c1.2-0.2,2.3-0.5,3.4-0.7c2.2-0.5,4.3-0.9,6.3-1.3c4-0.8,7.5-1.6,10.6-2.2c3.1-0.7,5.9-1.2,8.3-1.7
				c2.4-0.6,4.4-1.1,6.2-1.5c3.5-0.9,5.8-1.4,7.4-1.8c3.1-0.8,3.1-0.8,3.1-0.8c4.3-1.1,8.4-2.1,12.4-3.1c3.9-1.1,7.8-2.2,11.5-3.3
				c3.7-1.1,7.2-2.1,10.7-3.1c3.4-1,6.7-1.9,9.8-3c6.2-2.1,12-4,17.2-5.7c2.6-0.9,5.1-1.7,7.4-2.5c1.2-0.4,2.3-0.8,3.4-1.2
				c1.1-0.4,2.1-0.8,3.2-1.2c8.2-3.1,14.3-5.5,18.4-7c2-0.8,3.6-1.4,4.6-1.8c1-0.4,1.5-0.7,1.5-0.7c0,0-0.5,0.1-1.6,0.4
				c-1,0.3-2.6,0.9-4.7,1.6c-4.1,1.4-10.3,3.6-18.6,6.5c-1,0.4-2.1,0.7-3.2,1.1c-1.1,0.4-2.2,0.8-3.4,1.1c-2.3,0.7-4.8,1.5-7.4,2.3
				c-5.2,1.7-10.9,3.5-17.2,5.5c-3.1,1-6.4,1.9-9.8,2.9c-3.4,1-7,1.9-10.7,3c-3.7,1-7.5,2.1-11.5,3.2c-4,1-8.1,2-12.4,3
				c0,0,0,0-3.1,0.8c-1.5,0.4-3.9,0.9-7.4,1.8c-1.7,0.4-3.8,0.9-6.1,1.5c-2.4,0.5-5.1,1.1-8.2,1.7c-3.1,0.6-6.6,1.4-10.6,2.2
				c-2,0.4-4.1,0.8-6.3,1.3c-1.1,0.2-2.2,0.5-3.4,0.7c-1.2,0.2-2.4,0.4-3.6,0.6c-4.9,0.8-10.3,1.8-16.3,2.8c-3,0.5-6.1,1.1-9.3,1.6
				c-3.3,0.5-6.7,0.9-10.2,1.4C458.4,729,420.3,733.1,369.2,733.7z"/>
		</g>
	</g>
</g>
<g>
	<g>
		<path id="XMLID_17_" class="st4" d="M128,606.2c-13.6-3.3-20.4-4.7-23.8-5.7c-3.4-0.9-3.4-0.9-3.4-0.9c-18.6-4.5-18.9-3.7-0.5,2
			c0,0,0,0,3.4,0.9c3.4,1,10.2,2.5,23.9,5.8C155,614,155,614,155,614c18.9,3.2,19.1,2.3,0.4-2C155.4,612,155.4,612,128,606.2z"/>
	</g>
	<g>
		<path id="XMLID_16_" class="st4" d="M193.5,618.5c-3.8-0.5-5.7-0.8-6.6-0.8c-1-0.1-1-0.1-1-0.1c-5.3,0.3-5.2,1.2-0.1,2
			c0,0,0,0,0.9,0c0.9,0,2.8,0.3,6.5,0.8c7.5,1.1,7.5,1.1,7.5,1.1c5.2,0.2,5.3-0.7,0.3-2C201,619.7,201,619.7,193.5,618.5z"/>
	</g>
	<g>
		<path id="XMLID_15_" class="st4" d="M376.7,630.6c-10.7,0-18.8,0.1-24.8,0.1c-3,0-5.5,0-7.6,0c-2.1-0.1-3.8-0.2-5.1-0.2
			c-5.4-0.2-5.4-0.2-5.4-0.2c-29.4-0.7-29.5,0.3-0.1,2c0,0,0,0,5.4,0.2c1.3,0.1,3,0.1,5.1,0.2c2.1,0,4.6,0,7.6,0
			c6,0,14.1,0,24.9-0.1c10.7-0.5,18.8-0.9,24.8-1.3c3-0.2,5.5-0.3,7.6-0.4c2.1-0.2,3.8-0.4,5.1-0.5c5.3-0.5,5.3-0.5,5.3-0.5
			c29.3-3.5,29.1-4.4-0.2-2c0,0,0,0-5.3,0.5c-1.3,0.1-3,0.3-5.1,0.5c-2.1,0.1-4.6,0.2-7.6,0.4C395.5,629.6,387.4,630,376.7,630.6z"
			/>
	</g>
	<g>
		<path id="XMLID_14_" class="st4" d="M611.2,607c-16.8,2.1-16.8,2.1-16.8,2.1c-11.4,2-11.4,2.9,0.2,2c0,0,0,0,16.9-2.2
			c16.8-2.6,16.8-2.6,16.8-2.6c11.4-2.4,11.2-3.3-0.3-2C627.9,604.4,627.9,604.4,611.2,607z"/>
	</g>
	<g>
		<path id="XMLID_13_" class="st4" d="M655.6,598.3c-4.1,0.9-4.1,0.9-4.1,0.9c-2.6,0.9-2.9,1.8,0.3,2c0,0,0.1,0.1,4.3-0.9
			c4.2-1.1,4.2-1.1,4.2-1.1c2.7-1.3,2.5-2.2-0.5-2C659.7,597.2,659.7,597.2,655.6,598.3z"/>
	</g>
	<g>
		<path id="XMLID_12_" class="st4" d="M656,584.9c-6.8,1.2-6.8,1.2-6.8,1.2c-4.6,1.4-4.5,2.3,0.3,2c0,0,0,0,6.9-1.2
			c6.8-1.2,6.8-1.2,6.8-1.2c4.6-1.4,4.5-2.3-0.3-2C663,583.7,663,583.7,656,584.9z"/>
	</g>
	<g>
		<path id="XMLID_11_" class="st4" d="M198.5,688.5c-12-2-21-3.4-27.8-4.5c-3.4-0.6-6.2-1-8.6-1.4c-2.3-0.5-4.2-0.9-5.7-1.2
			c-6-1.3-6-1.3-6-1.3c-32.7-6.6-33-5.7-0.4,2c0,0,0,0,6,1.3c1.5,0.3,3.4,0.7,5.7,1.2c2.4,0.4,5.2,0.9,8.6,1.4
			c6.8,1.1,15.8,2.6,27.9,4.5c12.1,1.4,21.2,2.5,28.1,3.3c3.4,0.4,6.3,0.7,8.6,1c2.4,0.2,4.3,0.3,5.8,0.5c6.1,0.5,6.1,0.5,6.1,0.5
			c33.4,2,33.4,1,0.2-2c0,0,0,0-6.1-0.5c-1.5-0.1-3.4-0.3-5.8-0.5c-2.4-0.3-5.2-0.6-8.6-1C219.6,691,210.6,689.9,198.5,688.5z"/>
	</g>
	<g>
		<path id="XMLID_9_" class="st4" d="M290.5,694.6c-5.1,0-5.1,0-5.1,0c-3.5,0.6-3.5,1.5,0,2c0,0,0,0,5.1,0c5.1,0,5.1,0,5.1,0
			c3.5-0.6,3.5-1.5,0-2C295.6,694.6,295.6,694.6,290.5,694.6z"/>
	</g>
	<g>
		<path id="XMLID_8_" class="st4" d="M105.8,669.1l-5.1-1.6l-0.5-0.2l-0.3,0.2l-0.4,0.2c-0.1,0.1-0.2,0.2-0.4,0.4
			c-0.1,0.2-0.3,0.4-0.4,0.6c-0.1,0.3,0,0.6,0,0.9c0.1,0.2,0.2,0.4,0.4,0.5c0.5,0.4,0.9,0.4,1.2,0.5c0.6,0,0.9-0.2,0.9-0.4
			c0-0.2-0.2-0.4-0.5-0.7c-0.2-0.1-0.3-0.3-0.4-0.5c0.1-0.1-0.1,0.1-0.3,0.1c0.1,0,0,0,0,0c0.3,0,0.5,0.2,0.4,0.2c0,0,0.1,0,0.2,0
			l0.1-0.1l-0.8,0l5.3,1.7c2.8,0.9,4.2,1,4.9,1.2c0.7,0.2,0.7,0.2,0.7,0.2c4,0.3,4.1-0.6,0.4-2c0,0,0,0-0.7-0.2
			C109.9,670.1,108.4,670,105.8,669.1z"/>
	</g>
	<g>
		<path id="XMLID_6_" class="st4" d="M354,708.7c-10.3,0.2-15.5,0.4-18.1,0.2c-2.6-0.1-2.6-0.1-2.6-0.1c-14.1-0.1-14.3,0.8-0.1,2
			c0,0,0,0,2.6,0.1c2.6,0.2,7.8-0.1,18.2-0.2c10.4-0.7,15.5-0.9,18.1-1.2c2.6-0.2,2.6-0.2,2.6-0.2c14.1-1.7,14-2.6-0.2-2
			c0,0,0,0-2.6,0.2C369.5,707.8,364.3,708,354,708.7z"/>
	</g>
	<g>
		<path id="XMLID_5_" class="st4" d="M583.1,683.9c-9.3,1.6-13.9,2.7-16.3,2.8c-2.3,0.3-2.3,0.3-2.3,0.3c-12.7,2.2-12.7,3.1,0.3,2
			c0,0,0,0,2.4-0.3c2.4-0.2,7-1.2,16.4-2.9c9.3-2.1,13.9-3,16.2-3.6c2.3-0.6,2.3-0.6,2.3-0.6c12.5-3.6,12.3-4.5-0.5-2
			c0,0,0,0-2.3,0.6C597,680.9,592.4,681.9,583.1,683.9z"/>
	</g>
	<g>
		<path id="XMLID_4_" class="st4" d="M606.2,660.7c-11.7,2.7-11.7,2.7-11.7,2.7c-7.9,2.4-7.8,3.3,0.5,2c0,0,0,0,11.8-2.7
			c11.7-3.3,11.7-3.3,11.7-3.3c7.8-2.8,7.5-3.7-0.6-2C617.7,657.4,617.7,657.4,606.2,660.7z"/>
	</g>
	<g>
		<path id="XMLID_3_" class="st4" d="M383.5,773c-2.7,0.1-5.1,0.1-7.1,0.2c-2.1,0.1-3.8-0.1-5.3-0.1c-1.5,0-2.8-0.1-3.8-0.1
			c-1-0.1-1.9-0.2-2.6-0.2c-2.7-0.3-2.7-0.3-2.7-0.3c-3.7-0.1-6.4-0.6-8.3-0.7c-1.9-0.1-2.8-0.1-2.8,0.1c0,0.2,0.8,0.5,2.6,1
			c1.8,0.4,4.5,1.3,8.3,1.7c0,0,0,0,2.7,0.3c0.7,0.1,1.5,0.1,2.6,0.2c1.1,0,2.3,0.1,3.9,0.1c1.5,0,3.3,0.2,5.4,0.1
			c2.1-0.1,4.5-0.1,7.2-0.2c5.4-0.4,9.5-0.7,12.6-1.1c3-0.3,5.1-0.6,6.4-0.8c2.7-0.4,2.7-0.4,2.7-0.4c14.7-2.8,14.5-3.7-0.3-2
			c0,0,0,0-2.7,0.4c-1.3,0.2-3.4,0.5-6.4,0.8C392.9,772.3,388.9,772.7,383.5,773z"/>
	</g>
	<g>
		<path id="XMLID_2_" class="st4" d="M440,767.9c-3.9,0.8-3.9,0.8-3.9,0.8c-2.6,1.1-2.3,2,0.4,2c0,0,0,0,3.8-0.8
			c3.8-0.4,3.8-0.4,3.8-0.4c2.6-0.8,2.7-1.7-0.1-2C444,767.5,444,767.5,440,767.9z"/>
	</g>
</g>
<path id="XMLID_1_" class="st5" d="M224.3,39.7c0,0-291.6,215.4,10.4,460.1C234.7,499.9,93.2,310.7,224.3,39.7z"/>
</svg>
