<?xml version="1.0" encoding="utf-8"?>
<svg version="1.1" id="Layer_1" xmlns="http://www.w3.org/2000/svg" xmlns:xlink="http://www.w3.org/1999/xlink" x="0px" y="0px"
	 viewBox="0 0 852.8 793.2" style="enable-background:new 0 0 852.8 793.2;" xml:space="preserve">
<style type="text/css">
	.st0{fill:#555A77;}
	.st1{opacity:0.3;}
	.st2{fill:#915924;}
	.st3{fill:#A3ABC8;}
	.st4{fill:#7F8699;}
	.st5{opacity:0.2;fill:#4295B6;}
	.st6{fill:#7D5120;}
	.st7{fill:#646987;}
	.st8{opacity:0.3;fill:#4A4D6A;}
	.st9{fill:#FBF6FA;}
</style>
<g>
	<g>
		<g>
			<path id="XMLID_75_" class="st0" d="M493.5,194.8c-1.4,0.1-6.4,4.1-5.4,6.5c1,2.4,4.2,3.1,5.8,2.8c1.6-0.3,4.6-2.6,4.1-4.2
				C497.5,198.3,496.3,195.2,493.5,194.8z"/>
			<path id="XMLID_74_" class="st0" d="M499.4,197.7c-1.4,0.1-8,4.2-7,6.6c0.9,2.4,4.7,5.7,6.2,5.5c1.6-0.3,5.9-2.7,5.4-4.3
				C503.6,203.9,502.1,198.2,499.4,197.7z"/>
			<path id="XMLID_73_" class="st0" d="M504.8,204.4c-1.4,0-9.5,4.3-8.6,6.7c0.8,2.4,5.2,8.3,6.7,8.1c1.6-0.2,7.1-2.7,6.7-4.3
				C509.3,213.4,507.5,205,504.8,204.4z"/>
			<path id="XMLID_72_" class="st0" d="M512.9,212.9c-1.4,0-11,4.4-10.3,6.8c0.7,2.4,5.6,10.9,7.2,10.8c1.6-0.1,8.3-2.7,8-4.3
				C517.6,224.5,515.6,213.6,512.9,212.9z"/>
			<path id="XMLID_71_" class="st0" d="M520.4,224.6c-1.4-0.1-12.5,4.5-11.9,6.9c0.6,2.4,6.1,13.5,7.7,13.5c1.6-0.1,9.5-2.8,9.3-4.4
				C525.3,239,523.1,225.4,520.4,224.6z"/>
			<path id="XMLID_70_" class="st0" d="M528.2,238.2c-1.3-0.1-14.1,4.5-13.5,7c0.6,2.5,6.6,16.1,8.2,16.1c1.6,0,10.8-2.8,10.6-4.4
				C533.3,255.3,530.8,239.1,528.2,238.2z"/>
			<path id="XMLID_69_" class="st0" d="M536.7,253.2c-1.3-0.2-15.6,4.6-15.1,7.1c0.5,2.5,7.1,18.8,8.6,18.8c1.6,0,12-2.8,11.9-4.5
				C542,273,539.3,254.2,536.7,253.2z"/>
			<path id="XMLID_68_" class="st0" d="M543.5,272.6c-1.3-0.2-17.1,4.7-16.7,7.2c0.4,2.5,7.6,21.4,9.1,21.5
				c1.6,0.1,13.3-2.9,13.2-4.5C549,295.2,546,273.7,543.5,272.6z"/>
			<path id="XMLID_67_" class="st0" d="M552.7,294.9c-1.3-0.3-18.6,4.8-18.3,7.3c0.3,2.5,8,24,9.6,24.1c1.6,0.2,14.5-2.9,14.5-4.5
				C558.5,320.1,555.2,296.1,552.7,294.9z"/>
			<path id="XMLID_66_" class="st0" d="M560.6,318.2c-1.3-0.3-20.1,4.9-19.9,7.4c0.2,2.5,8.5,26.6,10.1,26.8
				c1.6,0.2,15.7-2.9,15.8-4.6C566.6,346.2,563.1,319.5,560.6,318.2z"/>
			<path id="XMLID_65_" class="st0" d="M570.1,343.6c-1.3-0.4-21.7,5-21.6,7.5c0.1,2.6,9,29.2,10.5,29.4c1.6,0.3,16.9-3,17.1-4.6
				C576.3,374.3,572.6,345,570.1,343.6z"/>
			<path id="XMLID_64_" class="st0" d="M578.7,372.4c-1.3-0.4-23.2,5-23.2,7.6c0,2.6,9.5,31.8,11,32.1c1.6,0.3,18.2-3,18.4-4.7
				C585.1,405.8,581.1,373.9,578.7,372.4z"/>
		</g>
		<g class="st1">
			<path id="XMLID_63_" class="st2" d="M489.4,197.7c-1.1,1.2-1.8,2.6-1.4,3.6c1,2.4,4.2,3.1,5.8,2.8c0.4-0.1,0.8-0.3,1.2-0.5
				C493.4,201.5,491.5,199.5,489.4,197.7z"/>
			<path id="XMLID_62_" class="st0" d="M493.4,201.6c-0.9,0.9-1.4,1.9-1.1,2.7c0.9,2.4,4.7,5.7,6.2,5.5c0.2,0,0.5-0.1,0.8-0.2
				C497.6,206.8,495.6,204.1,493.4,201.6z"/>
			<path id="XMLID_61_" class="st2" d="M498.3,207.9c-1.4,1.1-2.4,2.3-2.1,3.2c0.8,2.4,5.2,8.3,6.7,8.1c0.3,0,0.9-0.2,1.5-0.4
				C502.6,215,500.6,211.4,498.3,207.9z"/>
			<path id="XMLID_60_" class="st2" d="M503.8,217.6c-0.8,0.8-1.3,1.5-1.1,2.1c0.7,2.3,5.2,10.1,6.9,10.7
				C507.7,226.1,505.9,221.8,503.8,217.6z"/>
			<path id="XMLID_59_" class="st2" d="M509.4,229.9c-0.6,0.6-0.9,1.1-0.8,1.6c0.6,2.4,6.1,13.5,7.7,13.5c0,0,0.1,0,0.1,0
				C513.8,240.1,511.6,235,509.4,229.9z"/>
			<path id="XMLID_58_" class="st2" d="M524.5,254.6c-1.8-0.5-3.5-1.6-4.8-3.7c-1.5-2.3-2.8-4.7-4.1-7.2c-0.6,0.6-1,1.1-0.9,1.5
				c0.6,2.5,6.6,16.1,8.2,16.1c0.7,0,3.1-0.6,5.5-1.4C527.1,258,525.8,256.3,524.5,254.6z"/>
			<path id="XMLID_57_" class="st2" d="M526.1,256.7c-2.7,1.2-4.7,2.6-4.5,3.5c0.5,2.5,7.1,18.8,8.6,18.8c0.8,0,4.2-0.8,7.1-1.8
				C534.8,270,530.6,262.8,526.1,256.7z"/>
			<path id="XMLID_56_" class="st2" d="M539.1,296c1.7-6.5,0.3-14.1-2.7-21.4c-4.7,1.6-9.8,3.9-9.6,5.3c0.4,2.5,7.6,21.4,9.1,21.5
				c0.5,0,1.8-0.2,3.5-0.6C538.8,299.3,538.6,297.7,539.1,296z"/>
			<path id="XMLID_55_" class="st2" d="M549.1,322.4c-2.8-5.2-3-10.9-3.6-16.4c-3.2-0.9-6-3.5-6.5-6.9c-2.6,1.1-4.6,2.3-4.5,3.1
				c0.3,2.5,8,24,9.6,24.1c0.7,0.1,3.9-0.6,7.2-1.4C550.3,324.2,549.6,323.4,549.1,322.4z"/>
			<path id="XMLID_54_" class="st2" d="M554.3,326.3c-2.1-0.3-4-1.6-5.2-3.9c-0.2-0.3-0.3-0.7-0.5-1c-4.2,1.5-8,3.1-7.9,4.3
				c0.2,2.5,8.5,26.6,10.1,26.8c0.8,0.1,4.5-0.6,8.2-1.5C557.4,342.9,556.6,334.3,554.3,326.3z"/>
			<path id="XMLID_53_" class="st2" d="M567.3,358.1c-3.6,0-7.3-2.2-8.1-5.9c-0.4-1.9-0.7-3.8-1.1-5.7c-5,1.6-9.7,3.4-9.6,4.6
				c0.1,2.6,9,29.2,10.5,29.4c0.8,0.1,5.6-0.7,9.9-1.8C568.7,371.9,568.8,364.7,567.3,358.1z"/>
			<path id="XMLID_52_" class="st2" d="M576,408.4c-0.8-4.5-0.5-10.8-0.9-16.3c-2.8-0.6-5.1-2.5-5.5-5.6c-0.5-3.7-0.6-7.8-0.8-12
				c-6.3,1.7-13.4,4.1-13.3,5.6c0,2.6,9.5,31.8,11,32.1c0.8,0.2,5.5-0.6,10-1.7C576.3,409.8,576.2,409.1,576,408.4z"/>
		</g>
		<path id="XMLID_51_" class="st3" d="M492.7,190.1c0,0,28.6-22.7,67-24l-5.9,7.9c0,0,32.1-2.5,50.1,13.5c0,0-20,2.7-23.5,5.9
			c0,0,18.7,22.3,48,25.4c0,0-37.1,4.2-68.4-12.3c0,0,8.1,14.5,17,21.5c0,0-62.2-13.3-83.1-34.3c0,0,32.3-5.7,57.6,2.3
			C551.4,196.1,532.1,181.7,492.7,190.1z"/>
		<path id="XMLID_50_" class="st4" d="M588.3,208.4c-10.1-2-19.6-6-29.5-8.5c-1.7,3.1-5.3,5.2-9.1,4c-9.3-2.9-20.1-9.6-30.2-7.5
			c-6.4,1.3-12.4,2.9-18.7,3.1c25.2,17.7,76.2,28.6,76.2,28.6c-8.9-7-17-21.5-17-21.5c31.2,16.5,68.4,12.3,68.4,12.3
			c-10.2-1.1-19-4.5-26.3-8.5C597.4,209.9,592.8,209.3,588.3,208.4z"/>
		<path id="XMLID_49_" class="st3" d="M490.9,193.2c0,0-25.2-26.4-63-33l4.8,8.7c0,0-31.5-6.8-51.4,6.5c0,0,19.4,5.4,22.4,9
			c0,0-21.6,19.5-51,18.6c0,0,36.2,9.3,69.4-2.8c0,0-10,13.2-19.8,19c0,0,63.4-4.6,87-22.6c0,0-31.2-10.1-57.3-5.6
			C432,191,453.1,179.5,490.9,193.2z"/>
		<path id="XMLID_48_" class="st4" d="M402.3,219.2c0,0,61.5-4.5,85.9-21.8c-0.7,0.3-1.5,0.5-2.4,0.6c-18.8,2.1-37.3,6.5-56.2,7.3
			c-6.5,0.3-10.1-8-6.8-12.8c-5,2-10,4.2-14.8,6.3c-7.6,3.3-15.5,5.5-23.4,7.5c11.5-0.1,24.8-1.5,37.6-6.2
			C422.1,200.3,412.1,213.5,402.3,219.2z"/>
		<path id="XMLID_47_" class="st3" d="M492.1,188c0,0,26.2-31,65.9-29.3c0,0-4.2-6.1-7.5-6.2c0,0,21.9-18.3,55-9.6
			c0,0-6.4-15.3-45-14.4c0,0,2.4-8.7,10.4-12c0,0-39-2.6-60.3,19.5c0,0-4.4-5.8-1.9-10.4c0,0-31.6,19.9-19.1,63c0,0,0-32.9,26-44.3
			C515.4,144.5,498.2,158.6,492.1,188z"/>
		<path id="XMLID_46_" class="st4" d="M577.9,134.9c-11.4,0.1-21.9,3.5-32.5,7.2c-1,0.3-1.9,0.5-2.8,0.5
			c-19.7,6.6-38.3,17.1-47.9,35.6c-1,3-1.9,6.2-2.6,9.7c0,0,26.2-31,65.9-29.3c0,0-4.2-6.1-7.5-6.2c0,0,21.9-18.3,55-9.6
			c0,0-0.4-0.9-1.4-2.1C595.3,139.1,586.8,134.9,577.9,134.9z"/>
		<path id="XMLID_45_" class="st3" d="M489.6,203.5c0,0-12.9,38.5,9.2,71.5c0,0-7.4-0.4-9.2-3.2c0,0-4.3,28.3,20.4,52
			c0,0-16.4,2.4-35.7-31c0,0-6.1,6.6-4.8,15.1c0,0-22.5-32-14.6-61.7c0,0-7.2-0.8-9.9,3.8c0,0,0.6-37.3,43.9-49.1
			c0,0-28.1,17.1-24.3,45.2C464.6,246.1,467.6,224,489.6,203.5z"/>
		<path id="XMLID_44_" class="st4" d="M489.7,271.8c1.8,2.8,9.2,3.2,9.2,3.2c-12.7-19-13.9-39.8-12.5-54c-2.2,10.7-3.4,21.8,0,32.2
			c1.9,6-3.3,10.2-8.3,10c-2.3,11.7-2.3,25.5,1.1,37.1c17.2,25.6,31,23.5,31,23.5C485.4,300.1,489.7,271.8,489.7,271.8z"/>
	</g>
	<path id="XMLID_43_" class="st5" d="M198.4,622.8c0,0,165.6,88.6,426.2,15.9c0,0-39.4,102.2-181.8,105.7
		c-142.4,3.5-156.3-32.4-208.5-60.8C182.2,655.2,198.4,622.8,198.4,622.8z"/>
	<path id="XMLID_42_" class="st5" d="M570.8,793.2c28.5-10.7,53.8-43.9,58.5-125.3c0,0-37.1,107.7-149.4,107.7
		c0,0,16.5,11.2,38.6,17.6H570.8z"/>
	<g>
		<g>
			<path id="XMLID_41_" class="st0" d="M621.4,88.5c-1.9-0.4-10.5,3-10.1,6.7c0.4,3.7,4.5,6,6.8,6.2c2.3,0.2,7.4-1.7,7.4-4.1
				C625.5,94.9,625,90.2,621.4,88.5z"/>
			<path id="XMLID_40_" class="st0" d="M628.3,94.9c-1.9-0.5-12.7,2.5-12.4,6.1c0.3,3.6,4.1,9.8,6.3,10.1c2.2,0.3,9.1-1.3,9.2-3.6
				C631.6,105.2,631.9,96.8,628.3,94.9z"/>
			<path id="XMLID_39_" class="st0" d="M633,106.4c-1.9-0.5-14.8,2-14.6,5.6c0.2,3.6,3.7,13.6,5.9,13.9c2.2,0.4,10.8-0.8,11-3.1
				C635.4,120.5,636.5,108.3,633,106.4z"/>
			<path id="XMLID_38_" class="st0" d="M640.6,121.3c-1.8-0.6-16.9,1.5-16.9,5.1c0,3.6,3.2,17.3,5.4,17.8c2.2,0.5,12.5-0.3,12.8-2.7
				C642.2,139.2,644,123.4,640.6,121.3z"/>
			<path id="XMLID_37_" class="st0" d="M646.1,140.5c-1.8-0.7-19,1-19.1,4.6c-0.1,3.6,2.8,21.1,5,21.6c2.2,0.5,14.2,0.1,14.6-2.2
				C646.9,162.2,649.4,142.7,646.1,140.5z"/>
			<path id="XMLID_36_" class="st0" d="M651.2,162.4c-1.8-0.7-21.1,0.4-21.4,4c-0.2,3.6,2.4,24.9,4.5,25.5c2.1,0.6,16,0.6,16.4-1.7
				C651.2,187.9,654.4,164.7,651.2,162.4z"/>
			<path id="XMLID_35_" class="st0" d="M656.7,186.4c-1.8-0.8-23.3-0.1-23.6,3.5c-0.4,3.6,2,28.6,4.1,29.3c2.1,0.7,17.7,1,18.2-1.2
				C655.8,215.7,659.8,188.8,656.7,186.4z"/>
			<path id="XMLID_34_" class="st0" d="M657.9,215.8c-1.7-0.9-25.4-0.6-25.9,3c-0.5,3.6,1.6,32.4,3.7,33.2c2.1,0.8,19.4,1.5,20-0.7
				C656.2,249,661,218.4,657.9,215.8z"/>
			<path id="XMLID_33_" class="st0" d="M661.5,250.2c-1.7-0.9-27.5-1.1-28.2,2.5c-0.6,3.6,1.1,36.2,3.2,37c2.1,0.9,21.1,2,21.7-0.3
				C659,287.2,664.4,252.8,661.5,250.2z"/>
			<path id="XMLID_32_" class="st0" d="M662.7,285.4c-1.7-1-29.6-1.6-30.4,1.9c-0.8,3.6,0.7,39.9,2.8,40.9c2,0.9,22.8,2.4,23.5,0.2
				C659.4,326.2,665.6,288.2,662.7,285.4z"/>
			<path id="XMLID_31_" class="st0" d="M665.3,324.2c-1.6-1.1-31.8-2.1-32.7,1.4c-0.9,3.5,0.3,43.7,2.3,44.7c2,1,24.5,2.9,25.3,0.7
				C661.1,368.8,668.1,327.1,665.3,324.2z"/>
			<path id="XMLID_30_" class="st0" d="M665.2,367.2c-1.6-1.1-33.9-2.6-34.9,0.9c-1,3.5-0.1,47.5,1.9,48.6c2,1.1,26.2,3.3,27.1,1.2
				C660.2,415.7,667.8,370.2,665.2,367.2z"/>
		</g>
		<g class="st1">
			<path id="XMLID_29_" class="st6" d="M625.5,96.8c-0.1-2.5-0.6-6.7-4.1-8.3c-0.3-0.1-0.8,0-1.4,0.1c0,0.7,0,1.4,0,2.1
				C622,92.6,623.8,94.6,625.5,96.8z"/>
			<path id="XMLID_28_" class="st6" d="M631.2,108.2c0.1-0.2,0.2-0.4,0.2-0.7c0.1-2.3,0.4-10.8-3.2-12.6c-0.6-0.1-2.1,0.1-3.9,0.5
				C627.4,99.2,629.8,103.4,631.2,108.2z"/>
			<path id="XMLID_27_" class="st6" d="M632.6,114.9c0.4,3.5,0.3,6.8-0.3,10c1.6-0.5,2.8-1.2,2.9-2.1c0.2-2.3,1.2-14.5-2.3-16.4
				c-0.4-0.1-1.2-0.1-2.3,0C631.6,109,632.3,111.8,632.6,114.9z"/>
			<path id="XMLID_26_" class="st6" d="M631.4,129c0.3,0.3,0.6,0.7,0.9,1c4.3,4.5,6.5,8.7,7.2,13.2c1.4-0.4,2.4-1,2.5-1.7
				c0.3-2.3,2-18.1-1.4-20.2c-0.8-0.3-4.3,0-7.9,0.7C632.5,124.4,632.1,126.7,631.4,129z"/>
			<path id="XMLID_25_" class="st6" d="M637.9,158.7c-0.6,2.5,0.2,5.2,1.5,8c3.5-0.3,7-1,7.1-2.2c0.3-2.3,2.9-21.8-0.4-24
				c-0.7-0.3-3.8-0.2-7.2,0.3C640.4,146.1,639.7,151.7,637.9,158.7z"/>
			<path id="XMLID_24_" class="st6" d="M645,178.3c1.1,4.4,1.8,8.9,2.2,13.4c2-0.3,3.4-0.8,3.5-1.5c0.4-2.3,3.7-25.5,0.5-27.8
				c-1-0.4-7.6-0.2-13.2,0.7C639.3,168.1,643.8,173.6,645,178.3z"/>
			<path id="XMLID_23_" class="st6" d="M647.7,200.6c0,6.4-0.3,12.7-0.7,19.1c4.2-0.1,8.1-0.6,8.3-1.7c0.5-2.3,4.5-29.2,1.4-31.6
				c-0.8-0.3-5.3-0.4-10.1-0.1C647.3,191,647.7,195.8,647.7,200.6z"/>
			<path id="XMLID_22_" class="st6" d="M646.8,223.7c-0.2,3.2-1.4,6-0.7,9.2c0.6,3.2,1.7,6.9,1.5,10.2c-0.2,3-1.4,6.7-0.5,9.6
				c4.4,0,8.4-0.4,8.7-1.5c0.6-2.2,5.3-32.9,2.3-35.4c-0.7-0.4-5.5-0.5-10.7-0.3C647.1,218.3,646.9,221,646.8,223.7z"/>
			<path id="XMLID_21_" class="st6" d="M647,252.8c0.9,2.8,2.7,5.7,3.1,8.5c0.9,5.4-1.1,9-3.5,13.8c-2.1,4.2-0.3,1.5,2.7,3.4
				c1.8,1.1,3.9,2.6,4.8,4.6c1.1,2.6,1.5,4.9,1.3,7.2c1.6-0.2,2.7-0.5,2.9-1c0.7-2.2,6.1-36.6,3.2-39.2c-0.9-0.5-7.9-0.7-14.8-0.4
				C646.6,250.8,646.7,251.9,647,252.8z"/>
			<path id="XMLID_20_" class="st6" d="M654,295.9c-2.2,5.7-5.2,8.6-1.8,14.2c2.2,3.8,1,10.2-1.1,13.7c-0.7,1.2,0,3.4,1.2,5.8
				c3.4-0.1,6.1-0.4,6.4-1.1c0.8-2.2,7-40.2,4.1-43c-0.5-0.3-3.8-0.6-8-0.7C656,288.5,655.6,291.9,654,295.9z"/>
			<path id="XMLID_19_" class="st6" d="M665.3,324.2c-0.7-0.5-7-0.9-13.9-1c-0.1,0.2-0.2,0.5-0.3,0.6c-1.8,3,5.2,11.3,5.5,15.5
				c0.3,3.8-0.2,6.8-1.5,9.7c2.7,2.2,4.7,5,4.5,8.7c-0.4,5.2-3.2,9.2-4.2,14.2c0,0.1,0,0.1,0,0.2c2.8-0.1,4.8-0.4,5-1
				C661.1,368.8,668.1,327.1,665.3,324.2z"/>
			<path id="XMLID_18_" class="st6" d="M665.2,367.2c-0.5-0.3-3.7-0.7-8.1-1c-0.7,1.8-1.4,3.6-1.8,5.6c-1.4,6.5,0,12.9-2.4,19.4
				c-2.6,6.8-4.6,13.7-9.1,19.6c-3.7,4.9-10.7,2-9.8-4.1c0.2-1.2,0.4-2.5,0.7-3.7c0-0.1,0-0.1-0.1-0.2c-0.2-1.1-0.5-2.1-0.6-3.2
				c0,0,0,0.1,0,0.1c-0.7,1.7-2,2.8-3.5,3.3c0.4,7.4,1,13.2,1.7,13.6c2,1.1,26.2,3.3,27.1,1.2C660.2,415.7,667.8,370.2,665.2,367.2z
				"/>
		</g>
	</g>
	<g>
		<path id="XMLID_17_" class="st3" d="M622.3,81.8c0,0,48.5-19.4,101.7-5.4l-11.4,8.4c0,0,45.1,9.9,63.1,39.2c0,0-28.5-4.6-34.6-1.6
			c0,0,16.5,38.3,55.3,54.7c0,0-52.7-9.5-88.7-45c0,0,5.1,23.2,14.5,36.5c0,0-79.8-43.8-99.9-81.3c0,0,46.7,5.4,78,26.8
			C700.3,114.1,679.8,86.5,622.3,81.8z"/>
		<path id="XMLID_16_" class="st4" d="M757.5,147.6c-11.8-4.4-23.2-9.7-34.9-14.6c-2.8-1.2-11.1-4.7-12.3-5.2
			c-0.4-0.2-0.9-0.4-1.3-0.6c-9.8,5.7-22.8,6.5-32.5,0.2c-13.5-8.7-27.2-17-42-23.5c29.5,32.7,87.7,64.6,87.7,64.6
			c-9.3-13.3-14.5-36.5-14.5-36.5c36.1,35.6,88.7,45,88.7,45C779.2,169.8,766.4,158.2,757.5,147.6z"/>
	</g>
	<g>
		<path id="XMLID_15_" class="st3" d="M618.5,85.2c0,0-23.7-46.6-72.9-71.2l3,13.9c0,0-40.4-22.3-73.3-12.2c0,0,24.5,15.4,27.1,21.6
			c0,0-37.7,17.9-77.6,4.6c0,0,45.8,27.7,96.4,24.7c0,0-19.2,14-35,17.9c0,0,88.9,19.8,128.7,4.8c0,0-38.6-26.7-76.4-31.3
			C538.6,58,572.3,50.8,618.5,85.2z"/>
		<path id="XMLID_14_" class="st4" d="M518.7,66.7c-1.6-2.9-2.7-6-3.3-9.5c-6.8,0.3-13.5,0.5-20.3,0.6c-13.7,0.2-27.3-0.3-40.4-2.2
			C471.8,61.8,494.6,67.6,518.7,66.7z"/>
		<path id="XMLID_13_" class="st4" d="M601.1,88.3c-1.2-0.2-2-0.3-2.5-0.4c-0.3,0-0.7-0.1-1.1-0.1c-2.1-0.2-4.2-0.5-6.3-0.7
			c-5.4-0.5-10.7-1-16.1-1.3c-9.4-0.7-18.7-1.2-28.1-2c-11.6-0.9-21.9-6.7-27.6-15.8c-5.1,3.6-20.3,13.5-33.1,16.6
			c0,0,88.9,19.8,128.7,4.8c0,0-0.4-0.3-1.2-0.8C609.7,89.1,605.4,89,601.1,88.3z"/>
	</g>
	<g>
		<path id="XMLID_12_" class="st3" d="M622.3,78.6c0,0,48.7-31.7,102.4-13c0,0-3.3-10.1-7.7-11.5c0,0,37.6-16.1,79.5,9.5
			c0,0-2.5-23.6-55.9-38.3c0,0,6.9-10.9,19.1-12.2c0,0-52.5-19.6-90.8,2c0,0-3.7-9.8,1.6-15.1c0,0-51.5,14.2-52.2,78.6
			c0,0,13.5-45.2,53.8-50.1C672.2,28.5,642.8,40.7,622.3,78.6z"/>
		<path id="XMLID_11_" class="st4" d="M784.5,48.1c-1-0.5-1.7-0.8-2.2-1c-0.3-0.1-0.7-0.2-1.1-0.4c-5.9-2.2-11.9-4.1-18.1-5.6
			c-5.9-1.5-11.8-3-17.7-4.5c-5.6,4.7-12.8,7.5-20.2,7.3c-5.3-0.1-10.7-0.2-16,0.2c-2.3,0.2-4.7,0.4-7,0.6c-0.2,0.1-1.2,0.2-3,0.5
			c-9,1.7-17.9,4-26.6,7c-2.9,1-5.8,2-8.6,3.2c-0.9,0.3-1.5,0.6-2,0.8c-3.4,1.5-6.9,3.1-10.2,4.8c-8.6,4.3-17,8.8-25.3,13.6
			c-0.9,0.5-1.9,1-2.9,1.5c-0.5,0.9-1,1.7-1.5,2.6c0,0,48.7-31.7,102.4-13c0,0-3.3-10.1-7.7-11.5c0,0,37.6-16.1,79.5,9.5
			c0,0-0.6-5.7-7.6-13.2C787.4,49.5,786,48.8,784.5,48.1z"/>
	</g>
	<g>
		<path id="XMLID_10_" class="st3" d="M612.5,98.9c0,0-33.5,47.5-16.8,101.9c0,0-9.9-3.6-11.3-8.2c0,0-17.5,37,6.6,79.8
			c0,0-23.5-3.4-36.2-57.2c0,0-11.1,6.5-12.9,18.7c0,0-17.7-53.2,5.3-90.6c0,0-9.6-4-15.1,1.1c0,0,16.1-50.9,80.4-49.3
			c0,0-45.6,11.9-52,52C560.6,146.9,573.9,118,612.5,98.9z"/>
		<path id="XMLID_9_" class="st4" d="M595.2,116c-0.6,0.6-1.4,1.6-2,2.3c-1.5,2.3-2.9,4.7-4.1,7.2c-0.4,0.9-1.5,3.5-1.8,4.1
			c-0.3,0.9-0.7,1.8-1,2.7c-1.2,3.7-2.4,7.4-3.4,11.1c-1.8,6.9-3.3,13.8-4.4,20.8c-0.1,1.4-0.8,7.3-0.9,8.9
			c-0.2,2.7-0.3,5.4-0.3,8.1c-0.1,11.8-5.8,20.5-13.8,25.7c0.7,3.6,1.4,7.1,2.3,10.7c3.3,13.2,5.9,26.6,9.2,39.9
			c0.4,1.6,0.8,3.3,1.2,4.9c8.2,9,14.8,10,14.8,10c-24.1-42.7-6.6-79.8-6.6-79.8c1.3,4.5,11.3,8.2,11.3,8.2
			C579,146.4,612.5,98.9,612.5,98.9c-1.9,0.9-3.7,1.9-5.5,2.9C604.5,107.3,600.5,112.3,595.2,116z"/>
	</g>
	<path id="XMLID_8_" class="st5" d="M34.4,495.7c-48.2,26.8,151.4,107,315.3,137.5c132.8,24.7,472.9-36.7,472.9-126.5
		c0,0-184.4-29.7-285.2-40.7C436.6,455,67.4,477.3,34.4,495.7z"/>
	<path id="XMLID_7_" class="st7" d="M34.4,506.7c-48.2-26.8,187-84.3,315.3-126.5c128.3-42.2,472.9,36.7,472.9,126.5
		c0,0-188.8-11-289.6,0C432.2,517.7,67.4,525,34.4,506.7z"/>
	<path id="XMLID_6_" class="st8" d="M739.4,429.4c-1,6.4-3.5,12.7-7.7,18.4c-10.9,14.9-25,25.6-41.9,33
		c-23.6,10.2-48.5,14.3-74.2,11.3c-27.5-3.2-54-10.4-81.2-15.3c-1.2-0.2-12-1.8-7.4-1.3c-2.6-0.3-5.1-0.6-7.7-0.7
		c-6.5-0.4-13.1-0.5-19.6-0.4c-14,0.1-27.9,0.7-41.9,1.3c-28.2,1.2-56.5,0.7-84.7,2.2c-7.8,0.4-15.6,0.9-23.4,1.7
		c-3.3,0.3-6.6,0.7-9.9,1.1c-1.1,0.1-1.9,0.2-2.5,0.3c-0.5,0.1-1.2,0.2-2.1,0.3c-13.2,2.1-25.9,5.5-38.9,8.4
		c-29,6.6-58.9,11.8-88.6,12.9c-28.9,1.1-58-0.2-87-0.4c-14.6-0.1-29.5-1.9-44-0.3c-1.6,0.2-2.6,0.3-3.2,0.3
		c-0.5,0.1-1.1,0.2-1.8,0.3c-3.4,0.5-6.7,1-10.1,1.5c-8.4,1.2-16.8,2.3-25.3,2.4c-1,0-1.9,0-2.8-0.1c0.3,0.2,0.5,0.3,0.8,0.5
		c33,18.3,397.7,11,498.6,0c100.8-11,289.6,0,289.6,0C822.6,478.8,789.2,451.9,739.4,429.4z"/>
	<g id="XMLID_5_">
		<path id="XMLID_83_" class="st9" d="M822.6,506.7c0,0-3.1-0.1-8.9-0.3c-5.8-0.2-14.3-0.4-25.1-0.7c-10.8-0.2-23.9-0.5-38.9-0.8
			c-7.5-0.1-15.5-0.3-23.9-0.3c-8.4-0.1-17.3-0.2-26.5-0.3c-9.2-0.1-18.9,0-28.8,0c-10,0.1-20.3,0.1-30.9,0.3
			c-5.3,0.1-10.7,0.2-16.1,0.3c-5.4,0.1-10.9,0.3-16.5,0.5c-5.6,0.2-11.2,0.3-16.8,0.6c-5.7,0.3-11.4,0.5-17.1,0.8
			c-5.7,0.4-11.5,0.8-17.4,1.2c-2.9,0.2-5.8,0.5-8.8,0.8c-2.9,0.3-5.9,0.6-8.8,0.8c-1.5,0.1-2.9,0.3-4.4,0.4c-1.5,0.2-3,0.3-4.5,0.5
			c-3,0.3-6,0.6-9,0.9c-6,0.6-12.1,1-18.1,1.5c-24.3,1.8-48.9,3.1-73.6,4.2c-24.7,1-49.4,1.8-73.7,2.4c-24.3,0.6-48.2,0.9-71.4,1.1
			c-23.1,0.2-45.5,0.2-66.7,0c-21.2-0.2-41.3-0.6-59.8-1.2c-18.5-0.5-35.5-1.3-50.5-2.3c-15-0.9-28.1-2-38.9-3.3
			c-10.7-1.2-19.1-2.7-24.8-4.1c-2.8-0.7-4.9-1.4-6.3-2c-0.7-0.3-1.2-0.6-1.5-0.7c-0.3-0.2-0.5-0.3-0.5-0.3s0.2,0.1,0.5,0.2
			c0.4,0.1,0.9,0.4,1.6,0.7c1.4,0.5,3.5,1.2,6.4,1.7c5.6,1.2,14.1,2.2,24.8,3.1c10.7,0.9,23.8,1.5,38.8,2c15,0.5,32,0.7,50.5,0.9
			c9.2,0.1,18.9,0.1,28.8,0.1c10,0,20.3-0.1,30.9-0.1c21.2-0.2,43.5-0.5,66.6-0.9c11.6-0.3,23.3-0.5,35.2-0.8
			c11.9-0.3,23.9-0.6,36.1-1c24.3-0.7,48.9-1.6,73.5-2.6c24.6-1,49.3-2.2,73.4-3.9c6-0.4,12.1-0.9,18-1.4c3-0.3,6-0.5,8.9-0.8
			c1.5-0.1,3-0.3,4.4-0.4c1.5-0.1,3-0.3,4.5-0.4c3-0.3,6-0.5,8.9-0.8c3-0.2,5.9-0.6,8.9-0.7c5.9-0.3,11.7-0.7,17.5-1
			c5.8-0.3,11.5-0.4,17.2-0.6c2.8-0.1,5.7-0.2,8.5-0.3c2.8,0,5.6-0.1,8.4-0.1c5.6-0.1,11.1-0.2,16.5-0.2c5.4,0,10.8,0,16.1,0
			c5.3,0,10.5,0.1,15.7,0.1c5.2,0.1,10.2,0.1,15.2,0.2c10,0.3,19.6,0.4,28.9,0.7c18.5,0.5,35.5,1.2,50.5,2c15,0.7,28.1,1.5,38.9,2.1
			c10.8,0.7,19.2,1.3,25,1.7C819.5,506.5,822.6,506.7,822.6,506.7z"/>
	</g>
	<path id="XMLID_4_" class="st9" d="M545.9,534.9c0,0,1-0.3,2.9-0.7c1.9-0.5,4.7-1.2,8.2-1.9c3.5-0.8,7.9-1.7,12.8-2.7
		c5-1,10.6-2.1,16.7-3.1c6.1-1.1,12.8-2.2,19.9-3.2c7.1-1.1,14.5-2.1,22.3-3.1c7.7-0.8,15.7-1.9,23.9-2.6c8.2-0.7,16.4-1.5,24.7-2.1
		c4.1-0.3,8.3-0.5,12.4-0.8c4.1-0.2,8.3-0.4,12.3-0.6c4.1-0.2,8.1-0.4,12.2-0.5c4-0.1,8-0.1,11.9-0.1c3.9,0,7.7-0.1,11.5-0.1
		c3.8,0.1,7.4,0.2,11,0.2c7.1,0.1,13.9,0.3,20.1,0.7c6.2,0.3,11.9,0.7,17,1c5,0.5,9.4,0.9,13.1,1.3c7.2,0.8,11.3,1.3,11.3,1.3
		s-4.2,0.1-11.4,0.2c-3.6,0-8,0-13.1,0c-5.1,0.1-10.7,0.3-17,0.4c-6.2,0-12.9,0.4-20,0.6c-3.6,0.1-7.2,0.2-10.9,0.3
		c-3.7,0.2-7.5,0.3-11.4,0.5c-3.9,0.2-7.8,0.3-11.8,0.5c-4,0.3-8,0.5-12.1,0.7c-4.1,0.2-8.2,0.5-12.3,0.7c-4.1,0.3-8.2,0.6-12.4,0.9
		c-8.3,0.4-16.5,1.2-24.6,1.8c-8.1,0.7-16.1,1.3-23.8,2c-7.7,0.7-15.2,1.4-22.3,2.1c-7.1,0.7-13.8,1.4-20,2
		c-12.4,1.3-22.7,2.4-29.9,3.1C550,534.5,545.9,534.9,545.9,534.9z"/>
	<path id="XMLID_3_" class="st9" d="M107,530.6c0,0,1.6,0.1,4.5,0.2c2.9,0.2,7.2,0.3,12.7,0.5c5.5,0.2,12.1,0.6,19.7,0.8
		c7.6,0.3,16.2,0.6,25.5,0.9c9.4,0.2,19.5,0.5,30.2,0.7c10.7,0.3,22,0.6,33.7,0.6c11.7,0.1,23.8,0.2,36.1,0.4
		c3.1,0.1,6.2,0.1,9.2,0.2c3.1,0,6.2-0.1,9.3-0.1c6.2-0.1,12.4-0.1,18.7-0.2c12.5,0,24.9,0,37.2,0c12.3-0.3,24.4-0.5,36.1-0.8
		c11.7-0.3,23-0.4,33.7-0.6c2.7,0,5.3-0.1,7.9-0.1c2.6,0,5.2-0.2,7.7-0.3c5-0.2,9.9-0.4,14.6-0.6c18.7-0.7,34.3-1.2,45.3-1.4
		c10.9-0.2,17.2-0.3,17.2-0.3s-6.2,0.7-17.1,1.8c-10.9,1.1-26.4,2.6-45.1,4.2c-9.3,0.7-19.5,1.9-30.2,2.2
		c-10.7,0.5-22.1,1.1-33.8,1.6c-5.9,0.2-11.8,0.5-17.8,0.8c-6,0.2-12.1,0.6-18.3,0.6c-12.3,0.1-24.8,0.2-37.3,0.3
		c-6.3,0-12.5,0-18.7,0c-3.1,0-6.2,0-9.3,0c-3.1-0.1-6.2-0.1-9.3-0.2c-12.3-0.3-24.4-0.7-36.1-1c-11.7-0.2-23-1-33.8-1.6
		c-10.7-0.6-20.9-1.2-30.2-2c-9.3-0.8-17.9-1.6-25.5-2.3c-7.6-0.6-14.2-1.5-19.6-2.1c-5.4-0.6-9.7-1.2-12.6-1.6
		C108.6,530.8,107,530.6,107,530.6z"/>
	<path id="XMLID_2_" class="st9" d="M17.6,483.3c0,0-0.7,0.3-1.9,1c-1.2,0.7-2.9,1.8-4.9,3.4c-2,1.6-4.3,3.7-5.9,6.6
		c-0.7,1.4-1.4,3.1-1.3,4.7l0,0.6l0.1,0.6c0.1,0.4,0.1,0.9,0.2,1.2c0.3,1,0.6,2.1,1.1,2.9c1.6,3.6,4.7,6.9,8.4,9.8
		c1,0.7,2,1.4,3,2.1c1,0.7,2.2,1.2,3.3,1.8c2.2,1.3,4.6,2.3,7.1,3.4c2.4,1.2,5.1,2,7.7,2.9c2.6,1,5.4,1.7,8.1,2.6
		c1.4,0.4,2.7,0.8,4.1,1.3c1.4,0.4,2.8,0.7,4.2,1.1c2.8,0.7,5.7,1.4,8.5,2.1c2.9,0.6,5.7,1.2,8.6,1.8c2.9,0.6,5.7,1.2,8.6,1.7
		c5.7,0.9,11.3,2.2,16.8,2.9c5.5,0.8,10.7,1.7,15.8,2.5c5,0.7,9.8,1.4,14.2,2.1c4.4,0.7,8.4,1.3,12,1.7c3.6,0.5,6.7,1,9.3,1.4
		c5.1,0.8,8.1,1.3,8.1,1.3s-3,0.1-8.2,0.1c-2.6,0-5.8,0-9.4,0c-1.8,0-3.7,0-5.8-0.1c-2,0-4.2-0.2-6.4-0.3c-4.5-0.2-9.3-0.5-14.4-0.8
		c-5.1-0.4-10.5-0.9-16-1.6c-1.4-0.1-2.8-0.3-4.2-0.5c-1.4-0.2-2.8-0.4-4.3-0.6c-2.9-0.4-5.7-0.8-8.6-1.3c-2.9-0.4-5.8-1-8.7-1.6
		c-2.9-0.6-5.9-1.2-8.8-1.7c-2.9-0.8-5.8-1.5-8.7-2.3c-1.4-0.4-2.9-0.7-4.3-1.2c-1.4-0.5-2.9-0.9-4.3-1.4c-2.8-0.9-5.7-1.8-8.4-3
		c-2.7-1.2-5.4-2.1-8-3.5c-2.6-1.3-5.1-2.5-7.5-4.1c-1.2-0.8-2.4-1.5-3.5-2.3c-1.1-0.9-2.1-1.7-3.2-2.6c-4.1-3.6-7.4-7.8-9-12.6
		c-0.5-1.2-0.6-2.2-0.9-3.3c-0.2-0.7-0.1-1.3-0.2-1.9L0,499.7l0.1-0.9c0.2-2.4,1.3-4.4,2.4-6c2.4-3.2,5.2-5,7.4-6.3
		c2.3-1.3,4.2-2.1,5.5-2.6C16.8,483.5,17.6,483.3,17.6,483.3z"/>
	<path id="XMLID_1_" class="st9" d="M835.9,483.3c0,0,0.7,0.1,1.8,0.4c1.1,0.3,2.8,0.8,4.6,1.8c1.8,0.9,3.8,2.3,5.7,4.2
		c1.8,1.9,3.5,4.5,4.3,7.4c0.4,1.5,0.6,3,0.5,4.5c0,1.5-0.4,2.9-0.8,4.3c-0.5,1.3-1.1,2.5-1.7,3.5c-0.7,1-1.4,1.9-2.1,2.7
		c-0.7,0.8-1.4,1.4-2,1.9c-0.6,0.5-1.2,1-1.7,1.3c-1,0.6-1.6,0.9-1.6,0.9s0.3-0.6,0.8-1.7c0.5-1,1.2-2.5,1.9-4.2
		c0.2-0.4,0.4-0.9,0.5-1.3c0.1-0.5,0.4-0.9,0.5-1.4c0.3-1,0.6-2,0.7-3c0.3-2,0.3-4.1-0.3-6.1c-1-4.1-4.1-7.8-6.6-10.6
		c-1.3-1.4-2.4-2.5-3.2-3.3C836.4,483.7,835.9,483.3,835.9,483.3z"/>
</g>
</svg>
